# xmcd CD database file
#
# Track frame offsets:
#	150
#	15075
#	35330
#	53307
#	72977
#	90260
#	111652
#	131412
#	150852
#	167342
#	189145
#	206360
#
# Disc length: 2930 seconds
#
# Revision: 0
# Processed by: cddbd v1.5.1PL2 Copyright (c) Steve Scherf et al.
# Submitted via: CDex 1.51
#
DISCID=7b0b700c
DTITLE=Jamie O'Hara - Beautiful Obsession
DYEAR=2001
DGENRE=Country
TTITLE0=Come Swim the Rivers With Me
TTITLE1=Beautiful Obsession
TTITLE2=I Surrender
TTITLE3=Don't Make Me Break Her Heart
TTITLE4=Can't Get You Out of My Mind
TTITLE5=Lovin' You Against My Will
TTITLE6=That Ain't The Way I Heard It
TTITLE7=See If I Care
TTITLE8=Pretend
TTITLE9=The Blessing and the Curse
TTITLE10=If It Will Make You Mine
TTITLE11=Mantra
EXTD=YEAR: 2001
EXTT0=
EXTT1=
EXTT2=
EXTT3=
EXTT4=
EXTT5=
EXTT6=
EXTT7=
EXTT8=
EXTT9=
EXTT10=
EXTT11=
PLAYORDER=
